# xmcd CD database file
#
# Track frame offsets:
#	150
#	11833
#	25403
#	41013
#	53273
#	66698
#	78041
#	92453
#	103238
#	115483
#	127491
#	139065
#	155888
#	171400
#	182031
#	194166
#	209477
#	219510
#	230938
#	243443
#	259813
#	272328
#	282940
#	300993
#	313920
#	333290
#
# Disc length: 4588 seconds
#
# Revision: 0
# Processed by: cddbd v1.5.2PL0 Copyright (c) Steve Scherf et al.
# Submitted via: ACXtractor (MTCDDB.DLL V2003.12.21)
#
DISCID=9411ea1a
DTITLE=Buddy Williams  - Big Banana Land
DYEAR=1990
DGENRE=Country
TTITLE0=The Big Banana Land
TTITLE1=Jacaranda Blue
TTITLE2=Toy Telephone
TTITLE3=The Buggy and Pair
TTITLE4=Sugar Cane Country
TTITLE5=Who can Make a Flower
TTITLE6=The Little Banana Boy
TTITLE7=The Echo Mountain Song
TTITLE8=White Backed Swallow
TTITLE9=The Blue Mountains of the Macleay
TTITLE10=The Old South Wind
TTITLE11=The Hills of Old Hickey's
TTITLE12=When Jesus Calls
TTITLE13=Way up North
TTITLE14=I'm Moving Out
TTITLE15=Pretty Girl
TTITLE16=The Mighty Moonbi Range
TTITLE17=The Lonely Boundry Rider
TTITLE18=On the Gundagai Line
TTITLE19=The Happiest Days of my Life
TTITLE20=The Wreck of the Tasman Bridge
TTITLE21=The Overlander Trail
TTITLE22=Ridin' Down the Valley
TTITLE23=Precious Memories
TTITLE24=I Like a Glass of Beer
TTITLE25=Take me Back
EXTD=ID3G:   2 YEAR: 1990
EXTT0=
EXTT1=
EXTT2=
EXTT3=
EXTT4=
EXTT5=
EXTT6=
EXTT7=
EXTT8=
EXTT9=
EXTT10=
EXTT11=
EXTT12=
EXTT13=
EXTT14=
EXTT15=
EXTT16=
EXTT17=
EXTT18=
EXTT19=
EXTT20=
EXTT21=
EXTT22=
EXTT23=
EXTT24=
EXTT25=
PLAYORDER=
